<svg width="280" height="80" viewBox="0 0 280 80" xmlns="http://www.w3.org/2000/svg">
  <!-- Background rounded rectangle -->
  <rect x="0" y="0" width="280" height="80" rx="8" fill="#07C160" opacity="0.1"/>
  <rect x="2" y="2" width="276" height="76" rx="6" fill="white" stroke="#07C160" stroke-width="2"/>
  
  <!-- WeChat Icon -->
  <circle cx="40" cy="40" r="18" fill="#07C160"/>
  <!-- WeChat bubbles -->
  <path d="M35 30c-5.523 0-10 3.806-10 8.5 0 2.65 1.5 5.012 3.75 6.563-.375 1.875-1.5 3.5-1.5 3.5s2.875-.625 4.375-1.875c1.125.375 2.25.625 3.375.625 5.523 0 10-3.806 10-8.5S40.523 30 35 30z" fill="white"/>
  <ellipse cx="32" cy="37" rx="1.5" ry="2" fill="#07C160"/>
  <ellipse cx="38" cy="37" rx="1.5" ry="2" fill="#07C160"/>
  <path d="M48 34c0-4.694-4.5-8.5-10-8.5-.625 0-1.25.063-1.875.188 1.875 1.5 3.125 3.75 3.125 6.25 0 2.125-.875 4-2.25 5.375.625.125 1.25.188 1.875.188 1.125 0 2.25-.25 3.375-.625 1.5 1.25 4.375 1.875 4.375 1.875s-1.125-1.625-1.5-3.5C46.5 39.012 48 36.65 48 34z" fill="white" opacity="0.85"/>
  
  <!-- WeChat Label -->
  <text x="75" y="32" font-family="Arial, sans-serif" font-size="14" font-weight="600" fill="#333">
    WeChat
  </text>
  
  <!-- Phone Number -->
  <text x="75" y="54" font-family="'Courier New', monospace" font-size="18" font-weight="700" fill="#07C160">
    +86 18612518271
  </text>
</svg>
