<svg width="280" height="80" viewBox="0 0 280 80" xmlns="http://www.w3.org/2000/svg">
  <!-- Background rounded rectangle -->
  <rect x="0" y="0" width="280" height="80" rx="8" fill="#25D366" opacity="0.1"/>
  <rect x="2" y="2" width="276" height="76" rx="6" fill="white" stroke="#25D366" stroke-width="2"/>
  
  <!-- WhatsApp Icon -->
  <circle cx="40" cy="40" r="18" fill="#25D366"/>
  <path d="M40 24c-8.837 0-16 7.163-16 16 0 2.829.74 5.486 2.039 7.788L24.5 54.5l6.95-1.827A15.93 15.93 0 0 0 40 54c8.837 0 16-7.163 16-16s-7.163-16-16-16zm8.333 22.667c-.34 0-3.478-1.65-4.022-1.837-.544-.187-.939-.281-1.333.281-.395.562-1.525 1.837-1.869 2.213-.344.375-.69.419-1.283.14-1.775-.835-3.3-1.492-4.617-3.384-.348-.502-.038-.773.245-1.022.251-.228.593-.595.889-.893.296-.297.395-.502.593-.837.198-.335.099-.628-.05-.88-.148-.251-1.333-3.22-1.826-4.408-.481-1.157-.97-.999-1.334-.999h-1.136c-.395 0-1.036.149-1.579.744-.544.595-2.073 2.026-2.073 4.942s2.123 5.732 2.419 6.128c.296.395 4.184 6.39 10.135 8.961 5.95 2.572 5.95 1.714 7.025 1.607 1.074-.107 3.478-1.422 3.97-2.793.493-1.372.493-2.548.345-2.793-.148-.245-.544-.395-1.136-.672z" fill="white"/>
  
  <!-- WhatsApp Label -->
  <text x="75" y="32" font-family="Arial, sans-serif" font-size="14" font-weight="600" fill="#333">
    WhatsApp
  </text>
  
  <!-- Phone Number -->
  <text x="75" y="54" font-family="'Courier New', monospace" font-size="18" font-weight="700" fill="#25D366">
    +86 15013702378
  </text>
</svg>
