<svg xmlns="http://www.w3.org/2000/svg" width="100" height="100" viewBox="0 0 24 24" fill="none" stroke="#0057b8" stroke-width="1.5" stroke-linecap="round" stroke-linejoin="round">
    <path d="M13 17h-2v-4H9v-2h2V9h2v2h2v2h-2z"/>
    <path d="M15 5.77V4.5a.5.5 0 0 0-.5-.5h-5a.5.5 0 0 0-.5.5v1.27a4 4 0 0 0-1.5 1.52V9h-2v2h2v2h-2v2h2v1.71a4 4 0 0 0 1.5 1.52V20.5a.5.5 0 0 0 .5.5h5a.5.5 0 0 0 .5-.5v-1.27a4 4 0 0 0 1.5-1.52V15h2v-2h-2v-2h2V9h-2V7.29a4 4 0 0 0-1.5-1.52zM15 18.29a2.5 2.5 0 0 1-1.5 1.21V20h-3v-.5a2.5 2.5 0 0 1-1.5-1.2v-1.6a2.5 2.5 0 0 1 0-2.38v-1.6a2.5 2.5 0 0 1 0-2.38v-1.6a2.5 2.5 0 0 1 1.5-1.2V5h3v.5a2.5 2.5 0 0 1 1.5 1.2v1.6a2.5 2.5 0 0 1 0 2.38v1.6a2.5 2.5 0 0 1 0 2.38v1.6z"/>
</svg>
